<svg xmlns="http://www.w3.org/2000/svg" viewBox="0 0 64 64">
  <!-- Claude-style 8-pointed star -->
  <defs>
    <linearGradient id="g" x1="0" y1="0" x2="1" y2="1">
      <stop offset="0%" stop-color="#f59e0b"/>
      <stop offset="100%" stop-color="#d97706"/>
    </linearGradient>
  </defs>
  <polygon points="32,4 38,24 32,20 26,24"
           fill="url(#g)"/>
  <polygon points="32,60 26,40 32,44 38,40"
           fill="url(#g)"/>
  <polygon points="4,32 24,26 20,32 24,38"
           fill="url(#g)"/>
  <polygon points="60,32 40,38 44,32 40,26"
           fill="url(#g)"/>
  <polygon points="12,12 24,20 20,24 14,18"
           fill="url(#g)" opacity="0.85"/>
  <polygon points="52,52 40,44 44,40 50,46"
           fill="url(#g)" opacity="0.85"/>
  <polygon points="12,52 20,40 24,44 18,50"
           fill="url(#g)" opacity="0.85"/>
  <polygon points="52,12 44,24 40,20 46,14"
           fill="url(#g)" opacity="0.85"/>
  <circle cx="32" cy="32" r="10" fill="#f59e0b"/>
  <circle cx="32" cy="32" r="5" fill="#1a1a1a"/>
</svg>
